<svg xmlns="http://www.w3.org/2000/svg" viewBox="0 0 64 64" width="64" height="64" shape-rendering="crispEdges">
  <rect x="18" y="56" width="28" height="4" fill="#000" opacity="0.32" />
  <g>
    <animateTransform attributeName="transform" type="translate" dur="0.7s" repeatCount="indefinite"
      values="0 0;0 -1;0 0" />
    <rect x="26" y="8" width="12" height="4" fill="#5f6d7a" />
    <rect x="24" y="12" width="16" height="10" fill="#7f8b96" />
    <rect x="26" y="16" width="12" height="2" fill="#d0d6dc" />
    <rect x="26" y="20" width="4" height="2" fill="#2a1b0c" />
    <rect x="34" y="20" width="4" height="2" fill="#2a1b0c" />

    <rect x="22" y="24" width="20" height="6" fill="#7f8b96" />
    <rect x="20" y="30" width="24" height="16" fill="#6f7a84" />
    <rect x="24" y="32" width="16" height="10" fill="#8f9aa5" />
    <rect x="30" y="30" width="4" height="16" fill="#c8860a" />

    <rect x="14" y="30" width="6" height="20" fill="#5f6d7a" />
    <rect x="12" y="34" width="8" height="12" fill="#6f7a84" />
    <rect x="14" y="36" width="4" height="8" fill="#d0d6dc" />

    <rect x="44" y="28" width="4" height="20" fill="#8a7450" />
    <rect x="42" y="26" width="8" height="4" fill="#d9b060" />
    <rect x="44" y="22" width="4" height="4" fill="#d9b060" />

    <rect x="22" y="46" width="8" height="10" fill="#4d3212" />
    <rect x="34" y="46" width="8" height="10" fill="#4d3212" />
    <rect x="22" y="56" width="8" height="2" fill="#2a1b0c" />
    <rect x="34" y="56" width="8" height="2" fill="#2a1b0c" />
  </g>
</svg>
